<?xml version="1.0" standalone="no"?>
<!DOCTYPE svg PUBLIC "-//W3C//DTD SVG 20010904//EN"
 "http://www.w3.org/TR/2001/REC-SVG-20010904/DTD/svg10.dtd">
<svg version="1.0" xmlns="http://www.w3.org/2000/svg"
 width="853.000000pt" height="252.000000pt" viewBox="0 0 853.000000 252.000000"
 preserveAspectRatio="xMidYMid meet">

<g transform="translate(0.000000,252.000000) scale(0.100000,-0.100000)"
fill="#000000" stroke="none">
<path d="M10 2225 l0 -285 185 0 185 0 0 -790 0 -790 290 0 290 0 0 790 0 790
185 0 185 0 0 285 0 285 -660 0 -660 0 0 -285z"/>
<path d="M1400 1255 l0 -1255 783 0 783 0 232 233 232 233 0 783 c0 552 -3
789 -11 804 -6 12 -108 120 -227 240 l-217 217 -787 0 -788 0 0 -1255z m1450
0 l0 -675 -435 0 -435 0 0 675 0 675 435 0 435 0 0 -675z"/>
<path d="M8258 2046 c-16 -8 -28 -12 -28 -8 0 4 -7 -2 -15 -12 -22 -29 -21
-572 0 -600 8 -11 15 -16 15 -11 0 5 5 4 12 -3 17 -17 264 -17 270 1 13 33 -3
37 -133 37 l-129 0 0 135 0 135 129 0 c109 0 130 3 135 16 3 9 4 20 0 25 -3 5
-63 9 -135 9 l-129 0 0 115 0 115 124 0 c99 0 126 3 136 15 24 29 -5 40 -118
43 -80 2 -114 -1 -134 -12z"/>
<path d="M4257 2025 c-18 -13 -18 -14 5 -26 13 -7 58 -13 100 -13 l78 -1 0
-268 c0 -253 5 -307 29 -307 25 0 31 62 31 315 l0 265 30 -6 c36 -8 129 3 150
17 13 8 12 11 -4 24 -28 21 -392 21 -419 0z"/>
<path d="M4872 2028 c-19 -19 -17 -591 2 -607 31 -26 36 21 36 306 0 209 -3
284 -13 296 -10 14 -15 15 -25 5z"/>
<path d="M5810 2030 c0 -5 -7 -10 -15 -10 -31 0 -35 -39 -35 -310 0 -271 4
-310 35 -310 8 0 15 -4 15 -10 0 -6 50 -10 129 -10 110 0 130 2 135 16 14 36
-11 44 -135 44 l-119 0 0 130 0 130 119 0 c93 0 121 3 131 15 10 12 10 18 0
30 -10 12 -38 15 -131 15 l-119 0 0 110 0 110 119 0 c123 0 151 9 137 45 -4
12 -29 15 -136 15 -80 0 -130 -4 -130 -10z"/>
<path d="M6790 2018 c-6 -13 -62 -149 -125 -303 l-115 -280 22 -17 c23 -17 23
-16 35 18 20 58 51 91 101 111 61 23 184 24 228 0 38 -20 83 -71 96 -109 11
-32 20 -35 38 -13 19 22 -224 615 -252 615 -10 0 -23 -10 -28 -22z m96 -246
l62 -147 -125 -3 c-69 -1 -127 -1 -129 1 -2 2 24 72 58 155 34 83 64 149 67
146 3 -2 33 -71 67 -152z"/>
<path d="M5047 2023 c-4 -3 -7 -147 -7 -320 0 -270 2 -313 15 -313 12 0 15 35
17 230 2 143 7 231 13 232 6 1 62 -82 125 -185 63 -103 118 -187 121 -187 4 0
40 53 80 118 148 238 158 252 174 246 13 -5 15 -39 15 -230 0 -192 2 -224 15
-224 13 0 15 42 15 316 0 285 -2 315 -16 312 -9 -2 -74 -97 -145 -213 -71
-115 -132 -211 -137 -212 -4 -1 -67 97 -141 217 -74 121 -135 220 -136 220 -1
0 -5 -3 -8 -7z"/>
<path d="M7200 1710 l0 -320 135 0 c148 0 187 10 238 58 61 58 73 130 37 222
-17 44 -19 64 -14 150 7 94 6 101 -17 134 -44 65 -78 76 -238 76 l-141 0 0
-320z m257 264 c40 -6 68 -40 83 -103 9 -40 9 -55 -4 -85 -18 -44 -39 -53
-147 -61 -46 -3 -94 -8 -106 -11 -23 -4 -23 -4 -23 135 l0 140 83 -5 c45 -3
96 -7 114 -10z m77 -303 c43 -47 33 -154 -19 -198 -24 -21 -36 -23 -141 -23
l-114 0 0 114 0 115 33 4 c17 2 75 5 128 5 82 2 98 -1 113 -17z"/>
<path d="M7777 2023 c-4 -3 -7 -143 -7 -310 l0 -303 175 0 c168 0 175 1 175
20 0 19 -7 20 -155 20 l-155 0 0 290 c0 235 -3 290 -13 290 -8 0 -17 -3 -20
-7z"/>
<path d="M6156 2007 c-17 -12 -17 -14 -1 -27 12 -10 44 -14 101 -15 l84 0 0
-270 c1 -207 4 -276 14 -294 l14 -25 16 32 c14 26 16 71 16 296 l0 264 39 -5
c44 -6 118 3 140 17 12 7 12 11 2 24 -11 14 -43 16 -210 16 -146 0 -202 -3
-215 -13z"/>
<path d="M6112 1015 c-99 -23 -164 -98 -166 -189 -1 -105 64 -161 207 -178 92
-11 129 -27 154 -64 38 -59 7 -136 -70 -173 -83 -40 -150 -23 -226 57 -44 47
-44 47 -54 23 -16 -34 18 -88 78 -126 42 -26 57 -30 125 -30 68 0 82 3 125 30
59 37 95 98 95 163 0 103 -62 156 -208 176 -97 14 -121 24 -151 62 -61 77 25
193 143 194 58 0 119 -31 154 -79 26 -35 48 -40 57 -11 8 24 -18 75 -50 96
-23 15 -99 46 -140 57 -11 3 -44 -1 -73 -8z"/>
<path d="M4325 1009 c-3 -8 -4 -163 -3 -344 l3 -330 132 1 c117 2 137 4 186
27 75 34 131 88 167 161 43 87 49 163 20 257 -19 63 -30 81 -84 135 -77 77
-122 93 -293 101 -100 5 -123 3 -128 -8z m274 -66 c69 -22 124 -71 160 -145
55 -109 33 -234 -54 -322 -56 -55 -113 -76 -232 -83 l-93 -6 0 287 0 286 84 0
c50 0 104 -7 135 -17z"/>
<path d="M5166 996 c-7 -30 196 -620 223 -649 17 -17 18 -17 33 0 21 25 230
621 226 647 -2 13 -10 21 -23 21 -22 0 -27 -13 -145 -348 -40 -114 -75 -206
-77 -203 -2 2 -46 122 -97 267 -65 185 -99 267 -113 276 -19 13 -21 12 -27
-11z"/>
<path d="M6913 1006 c-108 -35 -187 -108 -224 -205 -29 -78 -24 -205 11 -276
110 -225 422 -259 579 -61 82 102 94 256 31 374 -58 109 -159 173 -285 179
-41 2 -87 -3 -112 -11z m186 -63 c233 -75 259 -398 42 -517 -106 -57 -229 -42
-320 40 -227 204 -13 571 278 477z"/>
<path d="M7497 1014 c-4 -4 -7 -155 -7 -336 0 -284 2 -329 15 -334 8 -4 22 -1
30 6 12 10 15 59 17 278 l3 266 174 -224 c269 -348 277 -356 301 -311 6 12 10
133 10 322 0 267 -2 305 -16 321 -16 17 -18 17 -30 0 -10 -13 -13 -78 -14
-282 0 -261 0 -264 -19 -245 -11 11 -110 137 -221 280 -185 239 -223 279 -243
259z"/>
<path d="M4990 998 c-4 -408 0 -652 8 -660 6 -6 18 -8 26 -5 14 6 16 46 16
342 l0 335 -25 0 c-14 0 -25 -6 -25 -12z"/>
<path d="M5760 675 c0 -290 2 -336 15 -341 8 -4 22 -1 30 6 13 11 15 61 15
325 0 173 -3 320 -6 329 -3 9 -17 16 -30 16 l-24 0 0 -335z"/>
<path d="M6512 673 c3 -330 3 -338 23 -338 20 0 20 8 23 338 l2 337 -25 0 -25
0 2 -337z"/>
<path d="M380 205 l0 -25 285 0 285 0 0 -60 0 -60 -285 0 -285 0 0 -30 0 -30
290 0 290 0 0 115 0 115 -290 0 -290 0 0 -25z"/>
</g>
</svg>
